<?xml version="1.0" standalone="no"?><!DOCTYPE svg PUBLIC "-//W3C//DTD SVG 1.1//EN" "http://www.w3.org/Graphics/SVG/1.1/DTD/svg11.dtd"><svg t="1552820651113" class="icon" style="" viewBox="0 0 1024 1024" version="1.1" xmlns="http://www.w3.org/2000/svg" p-id="10404" xmlns:xlink="http://www.w3.org/1999/xlink" width="128" height="128"><defs><style type="text/css"></style></defs><path d="M751.957333 599.978667a282.026667 282.026667 0 0 0 37.568-72.661334 257.301333 257.301333 0 0 0 12.245334-52.544c1.621333-12.906667 2.666667-26.197333 2.666666-39.210666 0-153.088-121.28-277.610667-270.314666-277.610667h-169.984c-149.034667 0-270.293333 124.522667-270.293334 277.610667 0 153.066667 121.258667 277.610667 270.293334 277.610666h115.712c13.738667 0 24.938667 11.498667 24.938666 25.642667v95.808l181.525334-165.717333M479.850667 917.333333c-3.434667 0-6.954667-0.725333-10.24-2.261333a25.685333 25.685333 0 0 1-14.72-23.381333v-127.253334H364.16c-176.554667 0.021333-320.234667-147.541333-320.234667-328.874666S187.605333 106.666667 364.138667 106.666667h169.984c176.554667 0 320.213333 147.541333 320.213333 328.896 0 33.664-4.885333 67.434667-15.189333 99.413333-10.154667 31.637333-24.170667 62.336-43.413334 89.258667-16.874667 23.530667-36.48 44.266667-57.109333 64.277333-6.101333 5.930667-12.224 11.84-18.261333 17.813333-34.688 34.453333-72.426667 66.282667-108.522667 99.221334a120898.645333 120898.645333 0 0 0-95.296 86.976l-20.117333 18.346666a24.533333 24.533333 0 0 1-16.576 6.464m-150.613334-481.770666c0 26.261333-20.757333 47.552-46.314666 47.552-25.578667 0-46.314667-21.290667-46.314667-47.552 0-26.282667 20.736-47.573333 46.314667-47.573334 25.557333 0 46.314667 21.290667 46.314666 47.573334m119.893334-47.616c-25.536 0-46.293333 21.333333-46.293334 47.616 0 26.24 20.757333 47.552 46.293334 47.552 25.6 0 46.314667-21.290667 46.314666-47.552 0-26.282667-20.714667-47.616-46.314666-47.616m166.229333 0c-25.557333 0-46.314667 21.333333-46.314667 47.616 0 26.24 20.757333 47.552 46.314667 47.552 25.578667 0 46.336-21.290667 46.336-47.552 0-26.282667-20.757333-47.616-46.336-47.616m0 0" p-id="10405"></path><path d="M876.586667 353.024c7.722667 20.138667 6.250667 36.608 9.450666 58.624a210.474667 210.474667 0 0 1 56.576 144c0 9.792-0.768 19.754667-2.005333 29.461333-0.917333 7.488-2.346667 14.933333-4.16 22.229334a195.413333 195.413333 0 0 1-5.034667 17.194666 212.714667 212.714667 0 0 1-28.224 54.570667l-49.28 51.754667-136.277333 124.394666v-71.914666a18.986667 18.986667 0 0 0-18.709333-19.242667h-2.965334c-7.381333 6.570667-14.784 13.12-22.058666 19.733333l-20.544 18.752h26.794666V898.133333c0 7.552 4.352 14.464 11.072 17.536a18.261333 18.261333 0 0 0 20.117334-3.157333l15.104-13.781333 71.552-65.322667c27.114667-24.725333 55.424-48.597333 81.450666-74.474667 4.522667-4.501333 9.109333-8.917333 13.738667-13.376 15.466667-14.997333 30.186667-30.592 42.837333-48.256 14.442667-20.202667 24.96-43.221333 32.597334-67.008a243.2 243.2 0 0 0 11.413333-74.645333c0.042667-86.954667-37.098667-158.634667-103.445333-202.624z" p-id="10406"></path></svg>