<?xml version="1.0" standalone="no"?><!DOCTYPE svg PUBLIC "-//W3C//DTD SVG 1.1//EN" "http://www.w3.org/Graphics/SVG/1.1/DTD/svg11.dtd"><svg t="1552920735104" class="icon" style="" viewBox="0 0 1024 1024" version="1.1" xmlns="http://www.w3.org/2000/svg" p-id="3209" xmlns:xlink="http://www.w3.org/1999/xlink" width="128" height="128"><defs><style type="text/css"></style></defs><path d="M272.080234 732.736357c-37.807071-43.48028 44.299949-223.24141 108.61986-291.327088 64.267722-68.085678 263.887133-264.433578 263.887133-264.433578L78.407256 176.97569l0 781.295306 485.219053 0 183.745884-178.997744L747.372194 447.901123c0 0-88.109734 87.343277-182.381817 178.179099C470.71727 716.861808 309.888328 776.21766 272.080234 732.736357zM473.827097 447.955358l85.544305 85.544305 299.511491-299.457256-85.596494-85.543282L473.827097 447.955358zM858.882893 62.900585l-62.848397 62.848397 85.543282 85.597517 62.848397-62.848397L858.882893 62.900585zM344.148619 663.177118c25.424042 25.424042 192.527898-106.928335 192.527898-106.928335l-85.543282-85.597517C451.132212 470.651266 318.779835 637.756145 344.148619 663.177118z" p-id="3210"></path></svg>