<?xml version="1.0" standalone="no"?><!DOCTYPE svg PUBLIC "-//W3C//DTD SVG 1.1//EN" "http://www.w3.org/Graphics/SVG/1.1/DTD/svg11.dtd"><svg t="1552818828475" class="icon" style="" viewBox="0 0 1024 1024" version="1.1" xmlns="http://www.w3.org/2000/svg" p-id="2409" xmlns:xlink="http://www.w3.org/1999/xlink" width="64" height="64"><defs><style type="text/css"></style></defs><path d="M677.8 636.6L643.4 652c-10.8-50.2-22.2-94.3-34.8-133l33.3-11.5c13.6 40.2 25.8 83.2 35.9 129.1zM490.6 400h167.1v-35.5H490.6V400z m28.3 274.7l-7.9-34.8c11.1 1.5 21.5 2.2 31.5 2.2 8.2 0 12.5-5 12.5-14.3V486.4h-83.2v-35.9h204.4v35.9h-83.9V637c0 25.1-12.5 37.7-37.3 37.7h-36.1z m15.8-156.4c-11.1 50.2-26.9 93.2-47.7 129.8l-32.6-20.8c21.8-36.6 37.3-75.3 46.2-116.5l34.1 7.5zM431.4 347.6v63.8H469v36.2h-37.6v21.5c16.5 16.5 33.4 34.8 50.6 54.9l-21.1 31.9c-11.1-17.9-20.8-33-29.4-45.2v167.8h-36.9v-156c-10 26.5-21.9 51.7-35.5 74.6L343 556.2c23.3-31.9 40.5-68.1 51.3-108.6h-39.5v-36.2h39.8v-63.8h36.8z" p-id="2410"></path><path d="M511 130.3c-210.5 0-381.7 171.3-381.7 381.7S300.5 893.8 511 893.8s381.7-171.3 381.7-381.7S721.5 130.3 511 130.3m0 829.9c-247.1 0-448.1-201-448.1-448.1S263.9 63.9 511 63.9s448.1 201 448.1 448.1-201 448.2-448.1 448.2" p-id="2411"></path></svg>