<?xml version="1.0" standalone="no"?><!DOCTYPE svg PUBLIC "-//W3C//DTD SVG 1.1//EN" "http://www.w3.org/Graphics/SVG/1.1/DTD/svg11.dtd"><svg t="1552820287363" class="icon" style="" viewBox="0 0 1024 1024" version="1.1" xmlns="http://www.w3.org/2000/svg" p-id="9537" xmlns:xlink="http://www.w3.org/1999/xlink" width="128" height="128"><defs><style type="text/css"></style></defs><path d="M19.7 487.6l466.7 0 0-466.7L19.7 20.9 19.7 487.6zM79.4 80.6l347.3 0 0 347.3L79.4 427.9 79.4 80.6z" p-id="9538"></path><path d="M535.1 20.9l0 466.7 466.7 0 0-466.7L535.1 20.9zM942.2 427.9 594.8 427.9l0-347.3 347.3 0L942.1 427.9z" p-id="9539"></path><path d="M19.7 1001.8l466.7 0L486.4 535.1 19.7 535.1 19.7 1001.8zM79.4 594.8l347.3 0 0 347.3L79.4 942.1 79.4 594.8z" p-id="9540"></path><path d="M535.1 1001.8l466.7 0L1001.8 535.1 535.1 535.1 535.1 1001.8zM594.8 594.8l347.3 0 0 347.3L594.8 942.1 594.8 594.8z" p-id="9541"></path></svg>