<?xml version="1.0" standalone="no"?><!DOCTYPE svg PUBLIC "-//W3C//DTD SVG 1.1//EN" "http://www.w3.org/Graphics/SVG/1.1/DTD/svg11.dtd"><svg t="1552920500749" class="icon" style="" viewBox="0 0 1024 1024" version="1.1" xmlns="http://www.w3.org/2000/svg" p-id="2333" xmlns:xlink="http://www.w3.org/1999/xlink" width="128" height="128"><defs><style type="text/css"></style></defs><path d="M970.752 142.336v-6.144c0-10.24-4.096-19.456-12.288-24.576-7.168-6.144-16.384-8.192-23.552-8.192h-1.024c-16.384 1.024-104.448 3.072-209.92-18.432-115.712-25.6-196.608-63.488-197.632-63.488l-1.024-1.024c-4.096-1.024-16.384-5.12-27.648 1.024-2.048 1.024-4.096 1.024-6.144 2.048-73.728 28.672-144.384 50.176-209.92 65.536-100.352 22.528-173.056 17.408-187.392 16.384-6.144-3.072-15.36-4.096-27.648 3.072-8.192 5.12-13.312 15.36-13.312 27.648v6.144c-2.048 121.856 0 416.768 53.248 519.168 62.464 119.808 384 337.92 387.072 339.968l2.048 1.024c4.096 2.048 9.216 5.12 18.432 5.12 6.144 0 13.312-2.048 18.432-5.12l2.048-1.024c1.024-1.024 4.096-3.072 9.216-6.144 146.432-103.424 331.776-244.736 377.856-333.824 50.176-102.4 51.2-397.312 49.152-519.168z m-67.584 29.696c-1.024 305.152-25.6 417.792-46.08 457.728-39.936 77.824-238.592 228.352-345.088 302.08-106.496-73.728-305.152-224.256-345.088-302.08-39.936-77.824-47.104-316.416-45.056-456.704C158.72 174.08 220.16 171.008 296.96 154.624 395.264 133.12 479.232 102.4 512 89.088c23.552 10.24 95.232 39.936 198.656 62.464 62.464 12.288 126.976 19.456 192.512 20.48z" p-id="2334"></path><path d="M747.008 264.704h-192c-3.584 0-6.656-2.048-7.68-5.632-2.048-7.168-4.608-15.36-7.68-24.064-3.072-8.192-11.264-13.312-19.968-12.288l-28.672 4.608c-5.632 1.024-10.752 4.096-13.312 9.216s-3.072 10.752-0.512 16.384c1.024 2.56 1.024 5.12-0.512 7.68-1.536 2.56-4.096 3.584-6.656 3.584H291.328c-10.24 0-18.432 8.192-18.432 18.432v83.456c0 10.24 8.192 18.432 18.432 18.432h25.6c10.24 0 18.432-8.192 18.432-18.432v-34.304c0-4.608 3.584-8.192 8.192-8.192h351.744c4.608 0 8.192 3.584 8.192 8.192V363.52c0 10.24 8.192 18.432 18.432 18.432h25.6c10.24 0 18.432-8.192 18.432-18.432V283.136c-0.512-10.24-8.704-18.432-18.944-18.432z" p-id="2335"></path><path d="M703.488 386.56h-141.824c-4.608 0-8.192-3.584-8.192-8.192v-23.04c0-10.24-8.192-18.432-18.432-18.432h-27.136c-10.24 0-18.432 8.192-18.432 18.432v23.04c0 4.608-3.584 8.192-8.192 8.192H342.016c-10.24 0-18.432 8.192-18.432 18.432v256c0 10.24 8.192 18.432 18.432 18.432H368.64c10.24 0 18.432-8.192 18.432-18.432v-4.608c0-4.608 3.584-8.192 8.192-8.192h87.552c4.608 0 8.192 3.584 8.192 8.192V742.4c0 10.24 8.192 18.432 18.432 18.432h27.136c10.24 0 18.432-8.192 18.432-18.432v-86.016c0-4.608 3.584-8.192 8.192-8.192h89.088c4.608 0 8.192 3.584 8.192 8.192v2.56c0 10.24 8.192 18.432 18.432 18.432h26.624c10.24 0 18.432-8.192 18.432-18.432V404.48c-2.048-9.728-10.24-17.92-20.48-17.92zM658.944 481.28c0 4.608-3.584 8.192-8.192 8.192h-89.088c-4.608 0-8.192-3.584-8.192-8.192v-27.136c0-4.608 3.584-8.192 8.192-8.192h89.088c4.608 0 8.192 3.584 8.192 8.192V481.28z m-104.96 73.216c0-4.608 3.584-8.192 8.192-8.192h89.088c4.608 0 8.192 3.584 8.192 8.192v26.624c0 4.608-3.584 8.192-8.192 8.192h-89.088c-4.608 0-8.192-3.584-8.192-8.192v-26.624zM490.496 481.28c0 4.608-3.584 8.192-8.192 8.192H394.752c-4.608 0-8.192-3.584-8.192-8.192v-27.136c0-4.608 3.584-8.192 8.192-8.192h87.552c4.608 0 8.192 3.584 8.192 8.192V481.28z m-103.936 73.216c0-4.608 3.584-8.192 8.192-8.192h87.552c4.608 0 8.192 3.584 8.192 8.192v26.624c0 4.608-3.584 8.192-8.192 8.192H394.752c-4.608 0-8.192-3.584-8.192-8.192v-26.624z" p-id="2336"></path></svg>