<?xml version="1.0" standalone="no"?><!DOCTYPE svg PUBLIC "-//W3C//DTD SVG 1.1//EN" "http://www.w3.org/Graphics/SVG/1.1/DTD/svg11.dtd"><svg t="1552819871843" class="icon" style="" viewBox="0 0 1024 1024" version="1.1" xmlns="http://www.w3.org/2000/svg" p-id="6840" xmlns:xlink="http://www.w3.org/1999/xlink" width="128" height="128"><defs><style type="text/css"></style></defs><path d="M559.9985 1024l-95.933002 0c-35.310897 0-64.029999-28.719103-64.029999-64.029999l0-61.342083c0-13.791569-8.815725-25.999188-21.935315-30.383051l-34.974907-11.663636c-11.439643-3.807881-24.33524-0.751977-32.814975 7.743758l-41.006719 41.022718c-24.223243 24.191244-66.333927 24.223243-90.55717 0l-60.062123-60.078123C106.57267 833.189963 99.916878 817.110465 99.916878 799.991c0-17.087466 6.687791-33.182963 18.783413-45.262586l41.022718-41.038718c8.65573-8.65573 11.599638-21.167339 7.711759-32.750977L155.787132 645.915815C151.419268 632.812225 139.19565 623.9965 125.388082 623.9965L64.045999 623.9965C28.735102 623.9965 0.016 595.277398 0.016 559.966501l0-95.917003C0.016 428.754601 28.735102 400.0035 64.045999 400.0035l61.342083 0c13.807569 0 26.031187-8.799725 30.367051-21.903316l11.663636-34.990907c3.871879-11.615637 0.943971-24.143246-7.711759-32.798975l-41.022718-41.038718c-12.095622-12.095622-18.783413-28.17512-18.751414-45.294585 0-17.103466 6.655792-33.182963 18.783413-45.262586l60.030124-60.062123c12.095622-12.095622 28.191119-18.751414 45.278585-18.751414s33.182963 6.655792 45.278585 18.751414l41.022718 41.054717c8.495735 8.479735 21.375332 11.551639 32.782976 7.727759l35.006906-11.663636C391.187775 151.403269 400.0035 139.179651 400.0035 125.388082L400.0035 64.045999c0-35.310897 28.719103-64.045999 64.029999-64.045999l95.933002 0C595.277398 0 623.9965 28.735102 623.9965 64.045999l0 61.342083c0 13.807569 8.783726 26.015187 21.903316 30.383051l35.006906 11.663636c11.439643 3.807881 24.287241 0.751977 32.782976-7.727759l41.022718-41.038718c12.095622-12.095622 28.191119-18.751414 45.246586-18.751414 17.119465 0 33.182963 6.655792 45.310584 18.751414l60.062123 60.078123c24.97522 24.95922 24.97522 65.565951 0 90.541171l-41.022718 41.022718c-8.623731 8.65573-11.631637 21.215337-7.743758 32.798975l11.679635 34.990907C872.580732 391.187775 884.80435 400.0035 898.611918 400.0035l61.342083 0C995.264898 400.0035 1023.984 428.754601 1023.984 464.049498l0 95.917003C1023.984 595.277398 995.264898 623.9965 959.954001 623.9965l-61.342083 0c-13.807569 0-26.031187 8.815725-30.367051 21.919315l-11.679635 35.006906c-3.83988 11.583638-0.911972 24.127246 7.743758 32.718978l41.022718 41.086716c24.97522 24.943221 24.97522 65.565951 0 90.525171l-60.062123 60.078123c-24.223243 24.175245-66.333927 24.207244-90.55717 0l-41.022718-41.038718c-8.463736-8.463736-21.375332-11.567639-32.782976-7.727759l-35.006906 11.663636C632.780226 872.596731 623.9965 884.80435 623.9965 898.611918l0 61.342083C624.028499 995.280897 595.309397 1024 559.9985 1024zM333.013593 822.934283c6.911784 0 13.679573 1.103966 20.255367 3.279898l35.006906 11.663636c26.191182 8.751727 43.774632 33.166964 43.774632 60.734102l0 61.342083c0 17.663448 14.367551 32.030999 32.030999 32.030999L559.9985 991.985c17.663448 0 32.030999-14.367551 32.030999-32.030999l0-61.342083c0-27.599138 17.59945-51.998375 43.774632-60.734102l35.006906-11.663636c22.783288-7.583763 48.526484-1.503953 65.533952 15.439518l41.022718 41.070717c12.095622 12.111622 33.182963 12.079623 45.310584 0l60.062123-60.062123c12.463611-12.47961 12.463611-32.814975 0-45.294585l-41.022718-41.054717c-17.247461-17.215462-23.215275-42.334677-15.503516-65.501953l11.679635-35.006906c8.719728-26.191182 33.118965-43.790632 60.750102-43.790632L959.986 592.0135c17.663448 0 32.030999-14.351552 32.030999-32.030999l0-95.917003c0-17.663448-14.367551-32.046999-32.030999-32.046999l-61.342083 0c-27.631137 0-52.030374-17.59945-60.750102-43.790632l-11.663636-34.974907c-7.711759-23.183276-1.775945-48.31849 15.471517-65.565951l41.022718-41.022718c12.463611-12.49561 12.463611-32.814975 0-45.294585L822.678291 141.291585c-12.127621-12.095622-33.214962-12.111622-45.310584 0l-41.022718 41.038718c-17.007469 16.97547-42.750664 23.071279-65.533952 15.455517l-35.006906-11.647636c-26.191182-8.735727-43.774632-33.150964-43.774632-60.734102L592.029499 64.061998C592.029499 46.39855 577.661948 32.015 559.9985 32.015l-95.933002 0c-17.663448 0-32.030999 14.367551-32.030999 32.046999l0 61.342083c0 27.583138-17.59945 51.998375-43.742633 60.734102l-35.022906 11.663636c-22.71929 7.583763-48.526484 1.503953-65.533952-15.455517L246.696291 141.291585c-12.095622-12.095622-33.182963-12.111622-45.310584 0l-60.062123 60.078123C135.259773 207.417518 131.947877 215.449267 131.947877 224.009c-0.031999 8.559733 3.311897 16.607481 9.375707 22.655292l41.022718 41.054717c17.27946 17.247461 23.215275 42.366676 15.471517 65.549952l-11.663636 34.958908c-8.751727 26.207181-33.118965 43.790632-60.750102 43.790632L64.077998 432.018499c-17.663448 0-32.030999 14.351552-32.030999 32.046999l0 95.917003c0 17.663448 14.367551 32.030999 32.030999 32.030999l61.342083 0c27.631137 0 52.030374 17.61545 60.750102 43.806631l11.663636 34.990907c7.743758 23.151277 1.807944 48.286491-15.471517 65.533952l-41.022718 41.022718c-6.063811 6.063811-9.375707 14.09556-9.375707 22.639293-0.031999 8.559733 3.311897 16.607481 9.375707 22.655292l60.062123 60.078123c12.127621 12.095622 33.214962 12.095622 45.342583 0l41.006719-41.054717C299.84663 829.590075 315.910128 822.934283 333.013593 822.934283z" p-id="6841"></path><path d="M512.031999 624.028499 512.031999 624.028499c-34.158933 0-65.997938-15.295522-87.405269-41.966689-21.375332-26.655167-29.343083-61.45408-21.77532-95.469017 9.215712-41.662698 42.094685-74.525671 83.741383-83.741383 42.622668-9.407706 86.157308 5.871817 112.812475 39.118778 21.407331 26.655167 29.343083 61.470079 21.807319 95.469017-9.247711 41.662698-42.126684 74.509672-83.741383 83.757383C529.023468 623.084529 520.463736 624.028499 512.031999 624.028499zM512 432.018499c-6.09581 0-12.319615 0.687979-18.463423 2.079935-29.087091 6.431799-53.006344 30.335052-59.438143 59.438143-5.43983 24.495235 0.223993 49.470454 15.503516 68.509859 15.311522 19.055405 38.062811 29.983063 62.430049 29.983063l0 0c6.127809 0 12.335615-0.687979 18.495422-2.063936 29.087091-6.463798 53.006344-30.335052 59.438143-59.454142 5.43983-24.495235-0.223993-49.486454-15.503516-68.509859C559.150527 442.946158 536.399238 432.018499 512 432.018499z" p-id="6842"></path></svg>